# xmcd
# Track frame offsets:
# 150
# 13555
# 23180
# 37218
# 48668
# 65318
# 76365
# 88493
# 101670
# 111843
# 125775
# 137540
# 151168
# 163775
# 177695
# 189330
# 202935
# 214448
#
# Disc length: 3057 seconds
# Revision: 0
# Processed by: cddbd v1.4PL0 Copyright (c) Steve Scherf et al.
# Submitted via: VisiTrax 2.9.5.180 - For more info visit www.synapsa.com
#
DISCID=060bef12
DTITLE=Chuck Owens - Same ole me
DYEAR=1996
DGENRE=
TTITLE0=Dr. time
TTITLE1=Lets make history
TTITLE2=Livin' in a fools paradise
TTITLE3=Hope your  feelin' me (like I'm feelin' ou)
TTITLE4=Old country
TTITLE5=Down in Louisiana
TTITLE6=The brand new Mr. me
TTITLE7=I'm beside myself
TTITLE8=Wonderful world of women
TTITLE9=The thought of losing you
TTITLE10=Cajun baby
TTITLE11=Love and honour
TTITLE12=Close up the honky tonks
TTITLE13=Borrowed angel
TTITLE14=Goin' through the Big D
TTITLE15=The girl who waits on tables
TTITLE16=To be loved (by someone like you)
TTITLE17=Mr. Millar
EXTD=
EXTT0=
EXTT1=
EXTT2=
EXTT3=
EXTT4=
EXTT5=
EXTT6=
EXTT7=
EXTT8=
EXTT9=
EXTT10=
EXTT11=
EXTT12=
EXTT13=
EXTT14=
EXTT15=
EXTT16=
EXTT17=
PLAYORDER=
